# xmcd
#
# Track frame offsets: 
#        182
#        11267
#        23455
#        34255
#        43457
#        54715
#        66207
#        76172
#        85325
#        95817
#        106455
#        119070
#        129280
#        140217
#        154607
#        165720
#
# Disc length: 2372 seconds
#
# Revision: 5
# Processed by: cddbd v1.5.1PL2 Copyright (c) Steve Scherf et al.
# Submitted via: ExactAudioCopy v0.95a5
#
DISCID=d9094210
DTITLE=Buck Owens - The Very Best Of Buck Owens - Vol. 2
DYEAR=1994
DGENRE=Country
TTITLE0=Above And Beyond
TTITLE1=Foolin' Around
TTITLE2=Under The Influence Of Love
TTITLE3=Love's Gonna Live Here
TTITLE4=My Heart Skips A Beat
TTITLE5=Cryin' Time
TTITLE6=Before You Go
TTITLE7=Buckaroo
TTITLE8=Think Of Me
TTITLE9=Where Does The Good Times Go
TTITLE10=Your Tender Loving Care
TTITLE11=How Long Will My Baby Be Gone
TTITLE12=Johnny B. Goode
TTITLE13=Big In Vegas
TTITLE14=Ruby (Are You Mad)
TTITLE15=Made In Japan
EXTD=
EXTT0=
EXTT1=
EXTT2=
EXTT3=
EXTT4=
EXTT5=
EXTT6=
EXTT7=
EXTT8=
EXTT9=
EXTT10=
EXTT11=
EXTT12=
EXTT13=
EXTT14=
EXTT15=
PLAYORDER=
